<mxfile host="app.diagrams.net" modified="2024-06-02T14:36:51.820Z" agent="Mozilla/5.0 (Windows NT 10.0; Win64; x64) AppleWebKit/537.36 (KHTML, like Gecko) Chrome/125.0.0.0 Safari/537.36" etag="M-a87CAGvy0UqVnYOxhC" version="24.4.13" type="github" pages="3">
  <diagram name="June" id="HZj8jKnXOruT3zKndQkR">
    <mxGraphModel dx="2919" dy="1755" grid="1" gridSize="10" guides="1" tooltips="1" connect="1" arrows="1" fold="1" page="1" pageScale="1" pageWidth="1169" pageHeight="827" math="0" shadow="0">
      <root>
        <mxCell id="0" />
        <mxCell id="1" parent="0" />
        <mxCell id="1BhZJ7InlEYALNkiRTqZ-1" value="June 2024" style="rounded=0;whiteSpace=wrap;html=1;fontSize=189;align=center;fontStyle=1;fontColor=#3999e2;" vertex="1" parent="1">
          <mxGeometry x="-1166" y="6" width="1160" height="157" as="geometry" />
        </mxCell>
        <mxCell id="1BhZJ7InlEYALNkiRTqZ-2" value="MONDAY" style="rounded=1;whiteSpace=wrap;html=1;fontColor=#3999E2;fontStyle=1;fontSize=21;fontFamily=Verdana;labelBorderColor=none;" vertex="1" parent="1">
          <mxGeometry x="-1169" y="170" width="166" height="60" as="geometry" />
        </mxCell>
        <mxCell id="1BhZJ7InlEYALNkiRTqZ-19" value="TUESDAY" style="rounded=1;whiteSpace=wrap;html=1;fontColor=#3999E2;fontStyle=1;fontSize=21;fontFamily=Verdana;labelBorderColor=none;" vertex="1" parent="1">
          <mxGeometry x="-1002" y="170" width="166" height="60" as="geometry" />
        </mxCell>
        <mxCell id="1BhZJ7InlEYALNkiRTqZ-20" value="WEDNESDAY" style="rounded=1;whiteSpace=wrap;html=1;fontColor=#3999E2;fontStyle=1;fontSize=21;fontFamily=Verdana;labelBorderColor=none;" vertex="1" parent="1">
          <mxGeometry x="-836" y="170" width="166" height="60" as="geometry" />
        </mxCell>
        <mxCell id="1BhZJ7InlEYALNkiRTqZ-21" value="SATURDAY" style="rounded=1;whiteSpace=wrap;html=1;fontColor=#3999E2;fontStyle=1;fontSize=21;fontFamily=Verdana;labelBorderColor=none;" vertex="1" parent="1">
          <mxGeometry x="-334" y="169" width="166" height="60" as="geometry" />
        </mxCell>
        <mxCell id="1BhZJ7InlEYALNkiRTqZ-22" value="FRIDAY" style="rounded=1;whiteSpace=wrap;html=1;fontColor=#3999E2;fontStyle=1;fontSize=21;fontFamily=Verdana;labelBorderColor=none;" vertex="1" parent="1">
          <mxGeometry x="-502" y="169" width="166" height="60" as="geometry" />
        </mxCell>
        <mxCell id="1BhZJ7InlEYALNkiRTqZ-23" value="THURSDAY" style="rounded=1;whiteSpace=wrap;html=1;fontColor=#3999E2;fontStyle=1;fontSize=21;fontFamily=Verdana;labelBorderColor=none;" vertex="1" parent="1">
          <mxGeometry x="-669" y="169" width="166" height="60" as="geometry" />
        </mxCell>
        <mxCell id="1BhZJ7InlEYALNkiRTqZ-24" value="SUNDAY" style="rounded=1;whiteSpace=wrap;html=1;fontColor=#3999E2;fontStyle=1;fontSize=21;fontFamily=Verdana;labelBorderColor=none;" vertex="1" parent="1">
          <mxGeometry x="-166" y="168" width="166" height="60" as="geometry" />
        </mxCell>
        <mxCell id="1BhZJ7InlEYALNkiRTqZ-67" value="2" style="rounded=0;whiteSpace=wrap;html=1;align=left;verticalAlign=top;fontStyle=1;fontFamily=Comic Sans MS;fontSize=19;" vertex="1" parent="1">
          <mxGeometry x="-168" y="240" width="166" height="90" as="geometry" />
        </mxCell>
        <mxCell id="1BhZJ7InlEYALNkiRTqZ-68" value="9" style="rounded=0;whiteSpace=wrap;html=1;align=left;verticalAlign=top;fontStyle=1;fontFamily=Comic Sans MS;fontSize=19;" vertex="1" parent="1">
          <mxGeometry x="-168" y="337" width="166" height="90" as="geometry" />
        </mxCell>
        <mxCell id="1BhZJ7InlEYALNkiRTqZ-69" value="16" style="rounded=0;whiteSpace=wrap;html=1;align=left;verticalAlign=top;fontStyle=1;fontFamily=Comic Sans MS;fontSize=19;" vertex="1" parent="1">
          <mxGeometry x="-168" y="434" width="166" height="90" as="geometry" />
        </mxCell>
        <mxCell id="1BhZJ7InlEYALNkiRTqZ-70" value="23" style="rounded=0;whiteSpace=wrap;html=1;align=left;verticalAlign=top;fontStyle=1;fontFamily=Comic Sans MS;fontSize=19;" vertex="1" parent="1">
          <mxGeometry x="-168" y="536" width="166" height="90" as="geometry" />
        </mxCell>
        <mxCell id="1BhZJ7InlEYALNkiRTqZ-71" value="30" style="rounded=0;whiteSpace=wrap;html=1;align=left;verticalAlign=top;fontStyle=1;fontFamily=Comic Sans MS;fontSize=19;" vertex="1" parent="1">
          <mxGeometry x="-168" y="636" width="166" height="90" as="geometry" />
        </mxCell>
        <mxCell id="1BhZJ7InlEYALNkiRTqZ-72" value="" style="rounded=0;whiteSpace=wrap;html=1;align=left;verticalAlign=top;fontStyle=1;fontFamily=Comic Sans MS;fontSize=19;" vertex="1" parent="1">
          <mxGeometry x="-167" y="737" width="166" height="90" as="geometry" />
        </mxCell>
        <mxCell id="1BhZJ7InlEYALNkiRTqZ-73" value="" style="rounded=0;whiteSpace=wrap;html=1;align=left;verticalAlign=top;fontStyle=1;fontFamily=Comic Sans MS;fontSize=19;" vertex="1" parent="1">
          <mxGeometry x="-836" y="240" width="166" height="90" as="geometry" />
        </mxCell>
        <mxCell id="1BhZJ7InlEYALNkiRTqZ-74" value="5" style="rounded=0;whiteSpace=wrap;html=1;align=left;verticalAlign=top;fontStyle=1;fontFamily=Comic Sans MS;fontSize=19;" vertex="1" parent="1">
          <mxGeometry x="-836" y="337" width="166" height="90" as="geometry" />
        </mxCell>
        <mxCell id="1BhZJ7InlEYALNkiRTqZ-75" value="12" style="rounded=0;whiteSpace=wrap;html=1;align=left;verticalAlign=top;fontStyle=1;fontFamily=Comic Sans MS;fontSize=19;" vertex="1" parent="1">
          <mxGeometry x="-836" y="434" width="166" height="90" as="geometry" />
        </mxCell>
        <mxCell id="1BhZJ7InlEYALNkiRTqZ-76" value="19" style="rounded=0;whiteSpace=wrap;html=1;align=left;verticalAlign=top;fontStyle=1;fontFamily=Comic Sans MS;fontSize=19;" vertex="1" parent="1">
          <mxGeometry x="-836" y="536" width="166" height="90" as="geometry" />
        </mxCell>
        <mxCell id="1BhZJ7InlEYALNkiRTqZ-77" value="26" style="rounded=0;whiteSpace=wrap;html=1;align=left;verticalAlign=top;fontStyle=1;fontFamily=Comic Sans MS;fontSize=19;" vertex="1" parent="1">
          <mxGeometry x="-836" y="636" width="166" height="90" as="geometry" />
        </mxCell>
        <mxCell id="1BhZJ7InlEYALNkiRTqZ-78" value="" style="rounded=0;whiteSpace=wrap;html=1;align=left;verticalAlign=top;fontStyle=1;fontFamily=Comic Sans MS;fontSize=19;" vertex="1" parent="1">
          <mxGeometry x="-835" y="737" width="166" height="90" as="geometry" />
        </mxCell>
        <mxCell id="1BhZJ7InlEYALNkiRTqZ-79" value="" style="rounded=0;whiteSpace=wrap;html=1;align=left;verticalAlign=top;fontStyle=1;fontFamily=Comic Sans MS;fontSize=19;" vertex="1" parent="1">
          <mxGeometry x="-670" y="240" width="166" height="90" as="geometry" />
        </mxCell>
        <mxCell id="1BhZJ7InlEYALNkiRTqZ-80" value="6" style="rounded=0;whiteSpace=wrap;html=1;align=left;verticalAlign=top;fontStyle=1;fontFamily=Comic Sans MS;fontSize=19;" vertex="1" parent="1">
          <mxGeometry x="-670" y="337" width="166" height="90" as="geometry" />
        </mxCell>
        <mxCell id="1BhZJ7InlEYALNkiRTqZ-81" value="13" style="rounded=0;whiteSpace=wrap;html=1;align=left;verticalAlign=top;fontStyle=1;fontFamily=Comic Sans MS;fontSize=19;" vertex="1" parent="1">
          <mxGeometry x="-670" y="434" width="166" height="90" as="geometry" />
        </mxCell>
        <mxCell id="1BhZJ7InlEYALNkiRTqZ-82" value="20" style="rounded=0;whiteSpace=wrap;html=1;align=left;verticalAlign=top;fontStyle=1;fontFamily=Comic Sans MS;fontSize=19;" vertex="1" parent="1">
          <mxGeometry x="-670" y="536" width="166" height="90" as="geometry" />
        </mxCell>
        <mxCell id="1BhZJ7InlEYALNkiRTqZ-83" value="27" style="rounded=0;whiteSpace=wrap;html=1;align=left;verticalAlign=top;fontStyle=1;fontFamily=Comic Sans MS;fontSize=19;" vertex="1" parent="1">
          <mxGeometry x="-670" y="636" width="166" height="90" as="geometry" />
        </mxCell>
        <mxCell id="1BhZJ7InlEYALNkiRTqZ-84" value="" style="rounded=0;whiteSpace=wrap;html=1;align=left;verticalAlign=top;fontStyle=1;fontFamily=Comic Sans MS;fontSize=19;" vertex="1" parent="1">
          <mxGeometry x="-669" y="737" width="166" height="90" as="geometry" />
        </mxCell>
        <mxCell id="1BhZJ7InlEYALNkiRTqZ-85" value="" style="rounded=0;whiteSpace=wrap;html=1;align=left;verticalAlign=top;fontStyle=1;fontFamily=Comic Sans MS;fontSize=19;" vertex="1" parent="1">
          <mxGeometry x="-502" y="240" width="166" height="90" as="geometry" />
        </mxCell>
        <mxCell id="1BhZJ7InlEYALNkiRTqZ-86" value="7" style="rounded=0;whiteSpace=wrap;html=1;align=left;verticalAlign=top;fontStyle=1;fontFamily=Comic Sans MS;fontSize=19;" vertex="1" parent="1">
          <mxGeometry x="-502" y="337" width="166" height="90" as="geometry" />
        </mxCell>
        <mxCell id="1BhZJ7InlEYALNkiRTqZ-87" value="14" style="rounded=0;whiteSpace=wrap;html=1;align=left;verticalAlign=top;fontStyle=1;fontFamily=Comic Sans MS;fontSize=19;" vertex="1" parent="1">
          <mxGeometry x="-502" y="434" width="166" height="90" as="geometry" />
        </mxCell>
        <mxCell id="1BhZJ7InlEYALNkiRTqZ-88" value="21" style="rounded=0;whiteSpace=wrap;html=1;align=left;verticalAlign=top;fontStyle=1;fontFamily=Comic Sans MS;fontSize=19;" vertex="1" parent="1">
          <mxGeometry x="-502" y="536" width="166" height="90" as="geometry" />
        </mxCell>
        <mxCell id="1BhZJ7InlEYALNkiRTqZ-89" value="28" style="rounded=0;whiteSpace=wrap;html=1;align=left;verticalAlign=top;fontStyle=1;fontFamily=Comic Sans MS;fontSize=19;" vertex="1" parent="1">
          <mxGeometry x="-502" y="636" width="166" height="90" as="geometry" />
        </mxCell>
        <mxCell id="1BhZJ7InlEYALNkiRTqZ-90" value="" style="rounded=0;whiteSpace=wrap;html=1;align=left;verticalAlign=top;fontStyle=1;fontFamily=Comic Sans MS;fontSize=19;" vertex="1" parent="1">
          <mxGeometry x="-501" y="737" width="166" height="90" as="geometry" />
        </mxCell>
        <mxCell id="1BhZJ7InlEYALNkiRTqZ-91" value="1" style="rounded=0;whiteSpace=wrap;html=1;align=left;verticalAlign=top;fontStyle=1;fontFamily=Comic Sans MS;fontSize=19;" vertex="1" parent="1">
          <mxGeometry x="-334.5" y="240" width="166" height="90" as="geometry" />
        </mxCell>
        <mxCell id="1BhZJ7InlEYALNkiRTqZ-92" value="8" style="rounded=0;whiteSpace=wrap;html=1;align=left;verticalAlign=top;fontStyle=1;fontFamily=Comic Sans MS;fontSize=19;" vertex="1" parent="1">
          <mxGeometry x="-334.5" y="337" width="166" height="90" as="geometry" />
        </mxCell>
        <mxCell id="1BhZJ7InlEYALNkiRTqZ-93" value="15" style="rounded=0;whiteSpace=wrap;html=1;align=left;verticalAlign=top;fontStyle=1;fontFamily=Comic Sans MS;fontSize=19;" vertex="1" parent="1">
          <mxGeometry x="-334.5" y="434" width="166" height="90" as="geometry" />
        </mxCell>
        <mxCell id="1BhZJ7InlEYALNkiRTqZ-94" value="22" style="rounded=0;whiteSpace=wrap;html=1;align=left;verticalAlign=top;fontStyle=1;fontFamily=Comic Sans MS;fontSize=19;" vertex="1" parent="1">
          <mxGeometry x="-334.5" y="536" width="166" height="90" as="geometry" />
        </mxCell>
        <mxCell id="1BhZJ7InlEYALNkiRTqZ-95" value="29" style="rounded=0;whiteSpace=wrap;html=1;align=left;verticalAlign=top;fontStyle=1;fontFamily=Comic Sans MS;fontSize=19;" vertex="1" parent="1">
          <mxGeometry x="-334.5" y="636" width="166" height="90" as="geometry" />
        </mxCell>
        <mxCell id="1BhZJ7InlEYALNkiRTqZ-96" value="" style="rounded=0;whiteSpace=wrap;html=1;align=left;verticalAlign=top;fontStyle=1;fontFamily=Comic Sans MS;fontSize=19;" vertex="1" parent="1">
          <mxGeometry x="-333.5" y="737" width="166" height="90" as="geometry" />
        </mxCell>
        <mxCell id="1BhZJ7InlEYALNkiRTqZ-97" value="" style="rounded=0;whiteSpace=wrap;html=1;align=left;verticalAlign=top;fontStyle=1;fontFamily=Comic Sans MS;fontSize=19;" vertex="1" parent="1">
          <mxGeometry x="-1003" y="240" width="166" height="90" as="geometry" />
        </mxCell>
        <mxCell id="1BhZJ7InlEYALNkiRTqZ-98" value="4" style="rounded=0;whiteSpace=wrap;html=1;align=left;verticalAlign=top;fontStyle=1;fontFamily=Comic Sans MS;fontSize=19;" vertex="1" parent="1">
          <mxGeometry x="-1003" y="337" width="166" height="90" as="geometry" />
        </mxCell>
        <mxCell id="1BhZJ7InlEYALNkiRTqZ-99" value="11" style="rounded=0;whiteSpace=wrap;html=1;align=left;verticalAlign=top;fontStyle=1;fontFamily=Comic Sans MS;fontSize=19;" vertex="1" parent="1">
          <mxGeometry x="-1003" y="434" width="166" height="90" as="geometry" />
        </mxCell>
        <mxCell id="1BhZJ7InlEYALNkiRTqZ-100" value="18" style="rounded=0;whiteSpace=wrap;html=1;align=left;verticalAlign=top;fontStyle=1;fontFamily=Comic Sans MS;fontSize=19;" vertex="1" parent="1">
          <mxGeometry x="-1003" y="536" width="166" height="90" as="geometry" />
        </mxCell>
        <mxCell id="1BhZJ7InlEYALNkiRTqZ-101" value="25" style="rounded=0;whiteSpace=wrap;html=1;align=left;verticalAlign=top;fontStyle=1;fontFamily=Comic Sans MS;fontSize=19;" vertex="1" parent="1">
          <mxGeometry x="-1003" y="636" width="166" height="90" as="geometry" />
        </mxCell>
        <mxCell id="1BhZJ7InlEYALNkiRTqZ-102" value="" style="rounded=0;whiteSpace=wrap;html=1;align=left;verticalAlign=top;fontStyle=1;fontFamily=Comic Sans MS;fontSize=19;" vertex="1" parent="1">
          <mxGeometry x="-1002" y="737" width="166" height="90" as="geometry" />
        </mxCell>
        <mxCell id="1BhZJ7InlEYALNkiRTqZ-103" value="" style="rounded=0;whiteSpace=wrap;html=1;align=left;verticalAlign=top;fontStyle=1;fontFamily=Comic Sans MS;fontSize=19;" vertex="1" parent="1">
          <mxGeometry x="-1169" y="240" width="166" height="90" as="geometry" />
        </mxCell>
        <mxCell id="1BhZJ7InlEYALNkiRTqZ-104" value="3" style="rounded=0;whiteSpace=wrap;html=1;align=left;verticalAlign=top;fontStyle=1;fontFamily=Comic Sans MS;fontSize=19;" vertex="1" parent="1">
          <mxGeometry x="-1169" y="337" width="166" height="90" as="geometry" />
        </mxCell>
        <mxCell id="1BhZJ7InlEYALNkiRTqZ-105" value="10" style="rounded=0;whiteSpace=wrap;html=1;align=left;verticalAlign=top;fontStyle=1;fontFamily=Comic Sans MS;fontSize=19;" vertex="1" parent="1">
          <mxGeometry x="-1169" y="434" width="166" height="90" as="geometry" />
        </mxCell>
        <mxCell id="1BhZJ7InlEYALNkiRTqZ-106" value="17" style="rounded=0;whiteSpace=wrap;html=1;align=left;verticalAlign=top;fontStyle=1;fontFamily=Comic Sans MS;fontSize=19;" vertex="1" parent="1">
          <mxGeometry x="-1169" y="536" width="166" height="90" as="geometry" />
        </mxCell>
        <mxCell id="1BhZJ7InlEYALNkiRTqZ-107" value="24" style="rounded=0;whiteSpace=wrap;html=1;align=left;verticalAlign=top;fontStyle=1;fontFamily=Comic Sans MS;fontSize=19;" vertex="1" parent="1">
          <mxGeometry x="-1169" y="636" width="166" height="90" as="geometry" />
        </mxCell>
        <mxCell id="1BhZJ7InlEYALNkiRTqZ-108" value="" style="rounded=0;whiteSpace=wrap;html=1;align=left;verticalAlign=top;fontStyle=1;fontFamily=Comic Sans MS;fontSize=19;" vertex="1" parent="1">
          <mxGeometry x="-1168" y="737" width="166" height="90" as="geometry" />
        </mxCell>
      </root>
    </mxGraphModel>
  </diagram>
  <diagram name="July" id="M2fRB0Y0RTy8Al1wwtW5">
    <mxGraphModel dx="2404" dy="1482" grid="1" gridSize="10" guides="1" tooltips="1" connect="1" arrows="1" fold="1" page="1" pageScale="1" pageWidth="1169" pageHeight="827" math="0" shadow="0">
      <root>
        <mxCell id="Pg4SqnnTzdEt7Q-hfGbh-0" />
        <mxCell id="Pg4SqnnTzdEt7Q-hfGbh-1" parent="Pg4SqnnTzdEt7Q-hfGbh-0" />
        <mxCell id="Pg4SqnnTzdEt7Q-hfGbh-2" value="July 2024" style="rounded=0;whiteSpace=wrap;html=1;fontSize=189;align=center;fontStyle=1;fontColor=#3999e2;" vertex="1" parent="Pg4SqnnTzdEt7Q-hfGbh-1">
          <mxGeometry x="-1166" y="6" width="1160" height="157" as="geometry" />
        </mxCell>
        <mxCell id="Pg4SqnnTzdEt7Q-hfGbh-3" value="MONDAY" style="rounded=1;whiteSpace=wrap;html=1;fontColor=#3999E2;fontStyle=1;fontSize=21;fontFamily=Verdana;labelBorderColor=none;" vertex="1" parent="Pg4SqnnTzdEt7Q-hfGbh-1">
          <mxGeometry x="-1169" y="170" width="166" height="60" as="geometry" />
        </mxCell>
        <mxCell id="Pg4SqnnTzdEt7Q-hfGbh-4" value="TUESDAY" style="rounded=1;whiteSpace=wrap;html=1;fontColor=#3999E2;fontStyle=1;fontSize=21;fontFamily=Verdana;labelBorderColor=none;" vertex="1" parent="Pg4SqnnTzdEt7Q-hfGbh-1">
          <mxGeometry x="-1002" y="170" width="166" height="60" as="geometry" />
        </mxCell>
        <mxCell id="Pg4SqnnTzdEt7Q-hfGbh-5" value="WEDNESDAY" style="rounded=1;whiteSpace=wrap;html=1;fontColor=#3999E2;fontStyle=1;fontSize=21;fontFamily=Verdana;labelBorderColor=none;" vertex="1" parent="Pg4SqnnTzdEt7Q-hfGbh-1">
          <mxGeometry x="-836" y="170" width="166" height="60" as="geometry" />
        </mxCell>
        <mxCell id="Pg4SqnnTzdEt7Q-hfGbh-6" value="SATURDAY" style="rounded=1;whiteSpace=wrap;html=1;fontColor=#3999E2;fontStyle=1;fontSize=21;fontFamily=Verdana;labelBorderColor=none;" vertex="1" parent="Pg4SqnnTzdEt7Q-hfGbh-1">
          <mxGeometry x="-334" y="169" width="166" height="60" as="geometry" />
        </mxCell>
        <mxCell id="Pg4SqnnTzdEt7Q-hfGbh-7" value="FRIDAY" style="rounded=1;whiteSpace=wrap;html=1;fontColor=#3999E2;fontStyle=1;fontSize=21;fontFamily=Verdana;labelBorderColor=none;" vertex="1" parent="Pg4SqnnTzdEt7Q-hfGbh-1">
          <mxGeometry x="-502" y="169" width="166" height="60" as="geometry" />
        </mxCell>
        <mxCell id="Pg4SqnnTzdEt7Q-hfGbh-8" value="THURSDAY" style="rounded=1;whiteSpace=wrap;html=1;fontColor=#3999E2;fontStyle=1;fontSize=21;fontFamily=Verdana;labelBorderColor=none;" vertex="1" parent="Pg4SqnnTzdEt7Q-hfGbh-1">
          <mxGeometry x="-669" y="169" width="166" height="60" as="geometry" />
        </mxCell>
        <mxCell id="Pg4SqnnTzdEt7Q-hfGbh-9" value="SUNDAY" style="rounded=1;whiteSpace=wrap;html=1;fontColor=#3999E2;fontStyle=1;fontSize=21;fontFamily=Verdana;labelBorderColor=none;" vertex="1" parent="Pg4SqnnTzdEt7Q-hfGbh-1">
          <mxGeometry x="-166" y="168" width="166" height="60" as="geometry" />
        </mxCell>
        <mxCell id="Pg4SqnnTzdEt7Q-hfGbh-10" value="7" style="rounded=0;whiteSpace=wrap;html=1;align=left;verticalAlign=top;fontStyle=1;fontFamily=Comic Sans MS;fontSize=19;" vertex="1" parent="Pg4SqnnTzdEt7Q-hfGbh-1">
          <mxGeometry x="-168" y="240" width="166" height="90" as="geometry" />
        </mxCell>
        <mxCell id="Pg4SqnnTzdEt7Q-hfGbh-11" value="14" style="rounded=0;whiteSpace=wrap;html=1;align=left;verticalAlign=top;fontStyle=1;fontFamily=Comic Sans MS;fontSize=19;" vertex="1" parent="Pg4SqnnTzdEt7Q-hfGbh-1">
          <mxGeometry x="-168" y="337" width="166" height="90" as="geometry" />
        </mxCell>
        <mxCell id="Pg4SqnnTzdEt7Q-hfGbh-12" value="21" style="rounded=0;whiteSpace=wrap;html=1;align=left;verticalAlign=top;fontStyle=1;fontFamily=Comic Sans MS;fontSize=19;" vertex="1" parent="Pg4SqnnTzdEt7Q-hfGbh-1">
          <mxGeometry x="-168" y="434" width="166" height="90" as="geometry" />
        </mxCell>
        <mxCell id="Pg4SqnnTzdEt7Q-hfGbh-13" value="28" style="rounded=0;whiteSpace=wrap;html=1;align=left;verticalAlign=top;fontStyle=1;fontFamily=Comic Sans MS;fontSize=19;" vertex="1" parent="Pg4SqnnTzdEt7Q-hfGbh-1">
          <mxGeometry x="-168" y="536" width="166" height="90" as="geometry" />
        </mxCell>
        <mxCell id="Pg4SqnnTzdEt7Q-hfGbh-14" value="" style="rounded=0;whiteSpace=wrap;html=1;align=left;verticalAlign=top;fontStyle=1;fontFamily=Comic Sans MS;fontSize=19;" vertex="1" parent="Pg4SqnnTzdEt7Q-hfGbh-1">
          <mxGeometry x="-168" y="636" width="166" height="90" as="geometry" />
        </mxCell>
        <mxCell id="Pg4SqnnTzdEt7Q-hfGbh-15" value="" style="rounded=0;whiteSpace=wrap;html=1;align=left;verticalAlign=top;fontStyle=1;fontFamily=Comic Sans MS;fontSize=19;" vertex="1" parent="Pg4SqnnTzdEt7Q-hfGbh-1">
          <mxGeometry x="-167" y="737" width="166" height="90" as="geometry" />
        </mxCell>
        <mxCell id="Pg4SqnnTzdEt7Q-hfGbh-16" value="3" style="rounded=0;whiteSpace=wrap;html=1;align=left;verticalAlign=top;fontStyle=1;fontFamily=Comic Sans MS;fontSize=19;" vertex="1" parent="Pg4SqnnTzdEt7Q-hfGbh-1">
          <mxGeometry x="-836" y="240" width="166" height="90" as="geometry" />
        </mxCell>
        <mxCell id="Pg4SqnnTzdEt7Q-hfGbh-17" value="10" style="rounded=0;whiteSpace=wrap;html=1;align=left;verticalAlign=top;fontStyle=1;fontFamily=Comic Sans MS;fontSize=19;" vertex="1" parent="Pg4SqnnTzdEt7Q-hfGbh-1">
          <mxGeometry x="-836" y="337" width="166" height="90" as="geometry" />
        </mxCell>
        <mxCell id="Pg4SqnnTzdEt7Q-hfGbh-18" value="17" style="rounded=0;whiteSpace=wrap;html=1;align=left;verticalAlign=top;fontStyle=1;fontFamily=Comic Sans MS;fontSize=19;" vertex="1" parent="Pg4SqnnTzdEt7Q-hfGbh-1">
          <mxGeometry x="-836" y="434" width="166" height="90" as="geometry" />
        </mxCell>
        <mxCell id="Pg4SqnnTzdEt7Q-hfGbh-19" value="24" style="rounded=0;whiteSpace=wrap;html=1;align=left;verticalAlign=top;fontStyle=1;fontFamily=Comic Sans MS;fontSize=19;" vertex="1" parent="Pg4SqnnTzdEt7Q-hfGbh-1">
          <mxGeometry x="-836" y="536" width="166" height="90" as="geometry" />
        </mxCell>
        <mxCell id="Pg4SqnnTzdEt7Q-hfGbh-20" value="31" style="rounded=0;whiteSpace=wrap;html=1;align=left;verticalAlign=top;fontStyle=1;fontFamily=Comic Sans MS;fontSize=19;" vertex="1" parent="Pg4SqnnTzdEt7Q-hfGbh-1">
          <mxGeometry x="-836" y="636" width="166" height="90" as="geometry" />
        </mxCell>
        <mxCell id="Pg4SqnnTzdEt7Q-hfGbh-21" value="" style="rounded=0;whiteSpace=wrap;html=1;align=left;verticalAlign=top;fontStyle=1;fontFamily=Comic Sans MS;fontSize=19;" vertex="1" parent="Pg4SqnnTzdEt7Q-hfGbh-1">
          <mxGeometry x="-835" y="737" width="166" height="90" as="geometry" />
        </mxCell>
        <mxCell id="Pg4SqnnTzdEt7Q-hfGbh-22" value="4" style="rounded=0;whiteSpace=wrap;html=1;align=left;verticalAlign=top;fontStyle=1;fontFamily=Comic Sans MS;fontSize=19;" vertex="1" parent="Pg4SqnnTzdEt7Q-hfGbh-1">
          <mxGeometry x="-670" y="240" width="166" height="90" as="geometry" />
        </mxCell>
        <mxCell id="Pg4SqnnTzdEt7Q-hfGbh-23" value="11" style="rounded=0;whiteSpace=wrap;html=1;align=left;verticalAlign=top;fontStyle=1;fontFamily=Comic Sans MS;fontSize=19;" vertex="1" parent="Pg4SqnnTzdEt7Q-hfGbh-1">
          <mxGeometry x="-670" y="337" width="166" height="90" as="geometry" />
        </mxCell>
        <mxCell id="Pg4SqnnTzdEt7Q-hfGbh-24" value="18" style="rounded=0;whiteSpace=wrap;html=1;align=left;verticalAlign=top;fontStyle=1;fontFamily=Comic Sans MS;fontSize=19;" vertex="1" parent="Pg4SqnnTzdEt7Q-hfGbh-1">
          <mxGeometry x="-670" y="434" width="166" height="90" as="geometry" />
        </mxCell>
        <mxCell id="Pg4SqnnTzdEt7Q-hfGbh-25" value="25" style="rounded=0;whiteSpace=wrap;html=1;align=left;verticalAlign=top;fontStyle=1;fontFamily=Comic Sans MS;fontSize=19;" vertex="1" parent="Pg4SqnnTzdEt7Q-hfGbh-1">
          <mxGeometry x="-670" y="536" width="166" height="90" as="geometry" />
        </mxCell>
        <mxCell id="Pg4SqnnTzdEt7Q-hfGbh-26" value="" style="rounded=0;whiteSpace=wrap;html=1;align=left;verticalAlign=top;fontStyle=1;fontFamily=Comic Sans MS;fontSize=19;" vertex="1" parent="Pg4SqnnTzdEt7Q-hfGbh-1">
          <mxGeometry x="-670" y="636" width="166" height="90" as="geometry" />
        </mxCell>
        <mxCell id="Pg4SqnnTzdEt7Q-hfGbh-27" value="" style="rounded=0;whiteSpace=wrap;html=1;align=left;verticalAlign=top;fontStyle=1;fontFamily=Comic Sans MS;fontSize=19;" vertex="1" parent="Pg4SqnnTzdEt7Q-hfGbh-1">
          <mxGeometry x="-669" y="737" width="166" height="90" as="geometry" />
        </mxCell>
        <mxCell id="Pg4SqnnTzdEt7Q-hfGbh-28" value="5" style="rounded=0;whiteSpace=wrap;html=1;align=left;verticalAlign=top;fontStyle=1;fontFamily=Comic Sans MS;fontSize=19;" vertex="1" parent="Pg4SqnnTzdEt7Q-hfGbh-1">
          <mxGeometry x="-502" y="240" width="166" height="90" as="geometry" />
        </mxCell>
        <mxCell id="Pg4SqnnTzdEt7Q-hfGbh-29" value="12" style="rounded=0;whiteSpace=wrap;html=1;align=left;verticalAlign=top;fontStyle=1;fontFamily=Comic Sans MS;fontSize=19;" vertex="1" parent="Pg4SqnnTzdEt7Q-hfGbh-1">
          <mxGeometry x="-502" y="337" width="166" height="90" as="geometry" />
        </mxCell>
        <mxCell id="Pg4SqnnTzdEt7Q-hfGbh-30" value="19" style="rounded=0;whiteSpace=wrap;html=1;align=left;verticalAlign=top;fontStyle=1;fontFamily=Comic Sans MS;fontSize=19;" vertex="1" parent="Pg4SqnnTzdEt7Q-hfGbh-1">
          <mxGeometry x="-502" y="434" width="166" height="90" as="geometry" />
        </mxCell>
        <mxCell id="Pg4SqnnTzdEt7Q-hfGbh-31" value="26" style="rounded=0;whiteSpace=wrap;html=1;align=left;verticalAlign=top;fontStyle=1;fontFamily=Comic Sans MS;fontSize=19;" vertex="1" parent="Pg4SqnnTzdEt7Q-hfGbh-1">
          <mxGeometry x="-502" y="536" width="166" height="90" as="geometry" />
        </mxCell>
        <mxCell id="Pg4SqnnTzdEt7Q-hfGbh-32" value="" style="rounded=0;whiteSpace=wrap;html=1;align=left;verticalAlign=top;fontStyle=1;fontFamily=Comic Sans MS;fontSize=19;" vertex="1" parent="Pg4SqnnTzdEt7Q-hfGbh-1">
          <mxGeometry x="-502" y="636" width="166" height="90" as="geometry" />
        </mxCell>
        <mxCell id="Pg4SqnnTzdEt7Q-hfGbh-33" value="" style="rounded=0;whiteSpace=wrap;html=1;align=left;verticalAlign=top;fontStyle=1;fontFamily=Comic Sans MS;fontSize=19;" vertex="1" parent="Pg4SqnnTzdEt7Q-hfGbh-1">
          <mxGeometry x="-501" y="737" width="166" height="90" as="geometry" />
        </mxCell>
        <mxCell id="Pg4SqnnTzdEt7Q-hfGbh-34" value="6" style="rounded=0;whiteSpace=wrap;html=1;align=left;verticalAlign=top;fontStyle=1;fontFamily=Comic Sans MS;fontSize=19;" vertex="1" parent="Pg4SqnnTzdEt7Q-hfGbh-1">
          <mxGeometry x="-334.5" y="240" width="166" height="90" as="geometry" />
        </mxCell>
        <mxCell id="Pg4SqnnTzdEt7Q-hfGbh-35" value="13" style="rounded=0;whiteSpace=wrap;html=1;align=left;verticalAlign=top;fontStyle=1;fontFamily=Comic Sans MS;fontSize=19;" vertex="1" parent="Pg4SqnnTzdEt7Q-hfGbh-1">
          <mxGeometry x="-334.5" y="337" width="166" height="90" as="geometry" />
        </mxCell>
        <mxCell id="Pg4SqnnTzdEt7Q-hfGbh-36" value="20" style="rounded=0;whiteSpace=wrap;html=1;align=left;verticalAlign=top;fontStyle=1;fontFamily=Comic Sans MS;fontSize=19;" vertex="1" parent="Pg4SqnnTzdEt7Q-hfGbh-1">
          <mxGeometry x="-334.5" y="434" width="166" height="90" as="geometry" />
        </mxCell>
        <mxCell id="Pg4SqnnTzdEt7Q-hfGbh-37" value="27" style="rounded=0;whiteSpace=wrap;html=1;align=left;verticalAlign=top;fontStyle=1;fontFamily=Comic Sans MS;fontSize=19;" vertex="1" parent="Pg4SqnnTzdEt7Q-hfGbh-1">
          <mxGeometry x="-334.5" y="536" width="166" height="90" as="geometry" />
        </mxCell>
        <mxCell id="Pg4SqnnTzdEt7Q-hfGbh-38" value="" style="rounded=0;whiteSpace=wrap;html=1;align=left;verticalAlign=top;fontStyle=1;fontFamily=Comic Sans MS;fontSize=19;" vertex="1" parent="Pg4SqnnTzdEt7Q-hfGbh-1">
          <mxGeometry x="-334.5" y="636" width="166" height="90" as="geometry" />
        </mxCell>
        <mxCell id="Pg4SqnnTzdEt7Q-hfGbh-39" value="" style="rounded=0;whiteSpace=wrap;html=1;align=left;verticalAlign=top;fontStyle=1;fontFamily=Comic Sans MS;fontSize=19;" vertex="1" parent="Pg4SqnnTzdEt7Q-hfGbh-1">
          <mxGeometry x="-333.5" y="737" width="166" height="90" as="geometry" />
        </mxCell>
        <mxCell id="Pg4SqnnTzdEt7Q-hfGbh-40" value="2" style="rounded=0;whiteSpace=wrap;html=1;align=left;verticalAlign=top;fontStyle=1;fontFamily=Comic Sans MS;fontSize=19;" vertex="1" parent="Pg4SqnnTzdEt7Q-hfGbh-1">
          <mxGeometry x="-1003" y="240" width="166" height="90" as="geometry" />
        </mxCell>
        <mxCell id="Pg4SqnnTzdEt7Q-hfGbh-41" value="9" style="rounded=0;whiteSpace=wrap;html=1;align=left;verticalAlign=top;fontStyle=1;fontFamily=Comic Sans MS;fontSize=19;" vertex="1" parent="Pg4SqnnTzdEt7Q-hfGbh-1">
          <mxGeometry x="-1003" y="337" width="166" height="90" as="geometry" />
        </mxCell>
        <mxCell id="Pg4SqnnTzdEt7Q-hfGbh-42" value="16" style="rounded=0;whiteSpace=wrap;html=1;align=left;verticalAlign=top;fontStyle=1;fontFamily=Comic Sans MS;fontSize=19;" vertex="1" parent="Pg4SqnnTzdEt7Q-hfGbh-1">
          <mxGeometry x="-1003" y="434" width="166" height="90" as="geometry" />
        </mxCell>
        <mxCell id="Pg4SqnnTzdEt7Q-hfGbh-43" value="23" style="rounded=0;whiteSpace=wrap;html=1;align=left;verticalAlign=top;fontStyle=1;fontFamily=Comic Sans MS;fontSize=19;" vertex="1" parent="Pg4SqnnTzdEt7Q-hfGbh-1">
          <mxGeometry x="-1003" y="536" width="166" height="90" as="geometry" />
        </mxCell>
        <mxCell id="Pg4SqnnTzdEt7Q-hfGbh-44" value="30" style="rounded=0;whiteSpace=wrap;html=1;align=left;verticalAlign=top;fontStyle=1;fontFamily=Comic Sans MS;fontSize=19;" vertex="1" parent="Pg4SqnnTzdEt7Q-hfGbh-1">
          <mxGeometry x="-1003" y="636" width="166" height="90" as="geometry" />
        </mxCell>
        <mxCell id="Pg4SqnnTzdEt7Q-hfGbh-45" value="" style="rounded=0;whiteSpace=wrap;html=1;align=left;verticalAlign=top;fontStyle=1;fontFamily=Comic Sans MS;fontSize=19;" vertex="1" parent="Pg4SqnnTzdEt7Q-hfGbh-1">
          <mxGeometry x="-1002" y="737" width="166" height="90" as="geometry" />
        </mxCell>
        <mxCell id="Pg4SqnnTzdEt7Q-hfGbh-46" value="1" style="rounded=0;whiteSpace=wrap;html=1;align=left;verticalAlign=top;fontStyle=1;fontFamily=Comic Sans MS;fontSize=19;" vertex="1" parent="Pg4SqnnTzdEt7Q-hfGbh-1">
          <mxGeometry x="-1169" y="240" width="166" height="90" as="geometry" />
        </mxCell>
        <mxCell id="Pg4SqnnTzdEt7Q-hfGbh-47" value="8" style="rounded=0;whiteSpace=wrap;html=1;align=left;verticalAlign=top;fontStyle=1;fontFamily=Comic Sans MS;fontSize=19;" vertex="1" parent="Pg4SqnnTzdEt7Q-hfGbh-1">
          <mxGeometry x="-1169" y="337" width="166" height="90" as="geometry" />
        </mxCell>
        <mxCell id="Pg4SqnnTzdEt7Q-hfGbh-48" value="15" style="rounded=0;whiteSpace=wrap;html=1;align=left;verticalAlign=top;fontStyle=1;fontFamily=Comic Sans MS;fontSize=19;" vertex="1" parent="Pg4SqnnTzdEt7Q-hfGbh-1">
          <mxGeometry x="-1169" y="434" width="166" height="90" as="geometry" />
        </mxCell>
        <mxCell id="Pg4SqnnTzdEt7Q-hfGbh-49" value="22" style="rounded=0;whiteSpace=wrap;html=1;align=left;verticalAlign=top;fontStyle=1;fontFamily=Comic Sans MS;fontSize=19;" vertex="1" parent="Pg4SqnnTzdEt7Q-hfGbh-1">
          <mxGeometry x="-1169" y="536" width="166" height="90" as="geometry" />
        </mxCell>
        <mxCell id="Pg4SqnnTzdEt7Q-hfGbh-50" value="29" style="rounded=0;whiteSpace=wrap;html=1;align=left;verticalAlign=top;fontStyle=1;fontFamily=Comic Sans MS;fontSize=19;" vertex="1" parent="Pg4SqnnTzdEt7Q-hfGbh-1">
          <mxGeometry x="-1169" y="636" width="166" height="90" as="geometry" />
        </mxCell>
        <mxCell id="Pg4SqnnTzdEt7Q-hfGbh-51" value="" style="rounded=0;whiteSpace=wrap;html=1;align=left;verticalAlign=top;fontStyle=1;fontFamily=Comic Sans MS;fontSize=19;" vertex="1" parent="Pg4SqnnTzdEt7Q-hfGbh-1">
          <mxGeometry x="-1168" y="737" width="166" height="90" as="geometry" />
        </mxCell>
      </root>
    </mxGraphModel>
  </diagram>
  <diagram name="August" id="9Hpcys5yVycbt5e8fn9e">
    <mxGraphModel dx="4963" dy="2220" grid="1" gridSize="10" guides="1" tooltips="1" connect="1" arrows="1" fold="1" page="1" pageScale="1" pageWidth="1169" pageHeight="827" background="none" math="0" shadow="0">
      <root>
        <mxCell id="ln1pvscLLcl-5rHWacLM-0" />
        <mxCell id="ln1pvscLLcl-5rHWacLM-1" parent="ln1pvscLLcl-5rHWacLM-0" />
        <mxCell id="ln1pvscLLcl-5rHWacLM-2" value="August 2024" style="rounded=0;html=1;fontSize=189;align=center;fontStyle=1;labelBackgroundColor=none;whiteSpace=wrap;fillColor=#5DA2E8;strokeColor=#000000;strokeWidth=2;" vertex="1" parent="ln1pvscLLcl-5rHWacLM-1">
          <mxGeometry x="-1166" y="6" width="1166" height="157" as="geometry" />
        </mxCell>
        <mxCell id="ln1pvscLLcl-5rHWacLM-3" value="MONDAY" style="rounded=1;html=1;fontStyle=1;fontSize=21;fontFamily=Verdana;labelBorderColor=none;labelBackgroundColor=none;whiteSpace=wrap;fillColor=#5DA2E8;strokeColor=#000000;strokeWidth=2;" vertex="1" parent="ln1pvscLLcl-5rHWacLM-1">
          <mxGeometry x="-1169" y="170" width="166" height="60" as="geometry" />
        </mxCell>
        <mxCell id="ln1pvscLLcl-5rHWacLM-4" value="TUESDAY" style="rounded=1;html=1;fontStyle=1;fontSize=21;fontFamily=Verdana;labelBorderColor=none;labelBackgroundColor=none;whiteSpace=wrap;fillColor=#5DA2E8;strokeColor=#000000;strokeWidth=2;" vertex="1" parent="ln1pvscLLcl-5rHWacLM-1">
          <mxGeometry x="-1002" y="170" width="166" height="60" as="geometry" />
        </mxCell>
        <mxCell id="ln1pvscLLcl-5rHWacLM-5" value="WEDNESDAY" style="rounded=1;html=1;fontStyle=1;fontSize=21;fontFamily=Verdana;labelBorderColor=none;labelBackgroundColor=none;whiteSpace=wrap;fillColor=#5DA2E8;strokeColor=#000000;strokeWidth=2;" vertex="1" parent="ln1pvscLLcl-5rHWacLM-1">
          <mxGeometry x="-836" y="170" width="166" height="60" as="geometry" />
        </mxCell>
        <mxCell id="ln1pvscLLcl-5rHWacLM-6" value="SATURDAY" style="rounded=1;html=1;fontStyle=1;fontSize=21;fontFamily=Verdana;labelBorderColor=none;labelBackgroundColor=none;whiteSpace=wrap;fillColor=#5DA2E8;strokeColor=#000000;strokeWidth=2;" vertex="1" parent="ln1pvscLLcl-5rHWacLM-1">
          <mxGeometry x="-334" y="169" width="166" height="60" as="geometry" />
        </mxCell>
        <mxCell id="ln1pvscLLcl-5rHWacLM-7" value="FRIDAY" style="rounded=1;html=1;fontStyle=1;fontSize=21;fontFamily=Verdana;labelBorderColor=none;labelBackgroundColor=none;whiteSpace=wrap;fillColor=#5DA2E8;strokeColor=#000000;strokeWidth=2;" vertex="1" parent="ln1pvscLLcl-5rHWacLM-1">
          <mxGeometry x="-502" y="169" width="166" height="60" as="geometry" />
        </mxCell>
        <mxCell id="ln1pvscLLcl-5rHWacLM-8" value="THURSDAY" style="rounded=1;html=1;fontStyle=1;fontSize=21;fontFamily=Verdana;labelBorderColor=none;labelBackgroundColor=none;whiteSpace=wrap;fillColor=#5DA2E8;strokeColor=#000000;strokeWidth=2;" vertex="1" parent="ln1pvscLLcl-5rHWacLM-1">
          <mxGeometry x="-669" y="169" width="166" height="60" as="geometry" />
        </mxCell>
        <mxCell id="ln1pvscLLcl-5rHWacLM-9" value="SUNDAY" style="rounded=1;html=1;fontStyle=1;fontSize=21;fontFamily=Verdana;labelBorderColor=none;labelBackgroundColor=none;whiteSpace=wrap;fillColor=#5DA2E8;strokeColor=#000000;strokeWidth=2;" vertex="1" parent="ln1pvscLLcl-5rHWacLM-1">
          <mxGeometry x="-166" y="168" width="166" height="60" as="geometry" />
        </mxCell>
        <mxCell id="ln1pvscLLcl-5rHWacLM-10" value="4" style="rounded=0;html=1;align=left;verticalAlign=top;fontStyle=1;fontFamily=Comic Sans MS;fontSize=19;labelBackgroundColor=none;whiteSpace=wrap;fillColor=#5DA2E8;strokeColor=#000000;strokeWidth=2;" vertex="1" parent="ln1pvscLLcl-5rHWacLM-1">
          <mxGeometry x="-168" y="240" width="166" height="90" as="geometry" />
        </mxCell>
        <mxCell id="ln1pvscLLcl-5rHWacLM-11" value="11" style="rounded=0;html=1;align=left;verticalAlign=top;fontStyle=1;fontFamily=Comic Sans MS;fontSize=19;labelBackgroundColor=none;whiteSpace=wrap;fillColor=#5DA2E8;strokeColor=#000000;strokeWidth=2;" vertex="1" parent="ln1pvscLLcl-5rHWacLM-1">
          <mxGeometry x="-168" y="337" width="166" height="90" as="geometry" />
        </mxCell>
        <mxCell id="ln1pvscLLcl-5rHWacLM-12" value="18" style="rounded=0;html=1;align=left;verticalAlign=top;fontStyle=1;fontFamily=Comic Sans MS;fontSize=19;labelBackgroundColor=none;whiteSpace=wrap;fillColor=#5DA2E8;strokeColor=#000000;strokeWidth=2;" vertex="1" parent="ln1pvscLLcl-5rHWacLM-1">
          <mxGeometry x="-168" y="434" width="166" height="90" as="geometry" />
        </mxCell>
        <mxCell id="ln1pvscLLcl-5rHWacLM-13" value="25" style="rounded=0;html=1;align=left;verticalAlign=top;fontStyle=1;fontFamily=Comic Sans MS;fontSize=19;labelBackgroundColor=none;whiteSpace=wrap;fillColor=#5DA2E8;strokeColor=#000000;strokeWidth=2;" vertex="1" parent="ln1pvscLLcl-5rHWacLM-1">
          <mxGeometry x="-168" y="536" width="166" height="90" as="geometry" />
        </mxCell>
        <mxCell id="ln1pvscLLcl-5rHWacLM-14" value="" style="rounded=0;html=1;align=left;verticalAlign=top;fontStyle=1;fontFamily=Comic Sans MS;fontSize=19;labelBackgroundColor=none;whiteSpace=wrap;fillColor=#5DA2E8;strokeColor=#000000;strokeWidth=2;" vertex="1" parent="ln1pvscLLcl-5rHWacLM-1">
          <mxGeometry x="-168" y="636" width="166" height="90" as="geometry" />
        </mxCell>
        <mxCell id="ln1pvscLLcl-5rHWacLM-15" value="" style="rounded=0;html=1;align=left;verticalAlign=top;fontStyle=1;fontFamily=Comic Sans MS;fontSize=19;labelBackgroundColor=none;whiteSpace=wrap;fillColor=#5DA2E8;strokeColor=#000000;strokeWidth=2;" vertex="1" parent="ln1pvscLLcl-5rHWacLM-1">
          <mxGeometry x="-167" y="737" width="166" height="90" as="geometry" />
        </mxCell>
        <mxCell id="ln1pvscLLcl-5rHWacLM-16" value="" style="rounded=0;html=1;align=left;verticalAlign=top;fontStyle=1;fontFamily=Comic Sans MS;fontSize=19;labelBackgroundColor=none;whiteSpace=wrap;fillColor=#5DA2E8;strokeColor=#000000;strokeWidth=2;" vertex="1" parent="ln1pvscLLcl-5rHWacLM-1">
          <mxGeometry x="-836" y="240" width="166" height="90" as="geometry" />
        </mxCell>
        <mxCell id="ln1pvscLLcl-5rHWacLM-17" value="7" style="rounded=0;html=1;align=left;verticalAlign=top;fontStyle=1;fontFamily=Comic Sans MS;fontSize=19;labelBackgroundColor=none;whiteSpace=wrap;fillColor=#5DA2E8;strokeColor=#000000;strokeWidth=2;" vertex="1" parent="ln1pvscLLcl-5rHWacLM-1">
          <mxGeometry x="-836" y="337" width="166" height="90" as="geometry" />
        </mxCell>
        <mxCell id="ln1pvscLLcl-5rHWacLM-18" value="14" style="rounded=0;html=1;align=left;verticalAlign=top;fontStyle=1;fontFamily=Comic Sans MS;fontSize=19;labelBackgroundColor=none;whiteSpace=wrap;fillColor=#5DA2E8;strokeColor=#000000;strokeWidth=2;" vertex="1" parent="ln1pvscLLcl-5rHWacLM-1">
          <mxGeometry x="-836" y="434" width="166" height="90" as="geometry" />
        </mxCell>
        <mxCell id="ln1pvscLLcl-5rHWacLM-19" value="21" style="rounded=0;html=1;align=left;verticalAlign=top;fontStyle=1;fontFamily=Comic Sans MS;fontSize=19;labelBackgroundColor=none;whiteSpace=wrap;fillColor=#5DA2E8;strokeColor=#000000;strokeWidth=2;" vertex="1" parent="ln1pvscLLcl-5rHWacLM-1">
          <mxGeometry x="-836" y="536" width="166" height="90" as="geometry" />
        </mxCell>
        <mxCell id="ln1pvscLLcl-5rHWacLM-20" value="28" style="rounded=0;html=1;align=left;verticalAlign=top;fontStyle=1;fontFamily=Comic Sans MS;fontSize=19;labelBackgroundColor=none;whiteSpace=wrap;fillColor=#5DA2E8;strokeColor=#000000;strokeWidth=2;" vertex="1" parent="ln1pvscLLcl-5rHWacLM-1">
          <mxGeometry x="-836" y="636" width="166" height="90" as="geometry" />
        </mxCell>
        <mxCell id="ln1pvscLLcl-5rHWacLM-21" value="" style="rounded=0;html=1;align=left;verticalAlign=top;fontStyle=1;fontFamily=Comic Sans MS;fontSize=19;labelBackgroundColor=none;whiteSpace=wrap;fillColor=#5DA2E8;strokeColor=#000000;strokeWidth=2;" vertex="1" parent="ln1pvscLLcl-5rHWacLM-1">
          <mxGeometry x="-835" y="737" width="166" height="90" as="geometry" />
        </mxCell>
        <mxCell id="ln1pvscLLcl-5rHWacLM-22" value="1" style="rounded=0;html=1;align=left;verticalAlign=top;fontStyle=1;fontFamily=Comic Sans MS;fontSize=19;labelBackgroundColor=none;whiteSpace=wrap;fillColor=#5DA2E8;strokeColor=#000000;strokeWidth=2;" vertex="1" parent="ln1pvscLLcl-5rHWacLM-1">
          <mxGeometry x="-670" y="240" width="166" height="90" as="geometry" />
        </mxCell>
        <mxCell id="ln1pvscLLcl-5rHWacLM-23" value="8" style="rounded=0;html=1;align=left;verticalAlign=top;fontStyle=1;fontFamily=Comic Sans MS;fontSize=19;labelBackgroundColor=none;whiteSpace=wrap;fillColor=#5DA2E8;strokeColor=#000000;strokeWidth=2;" vertex="1" parent="ln1pvscLLcl-5rHWacLM-1">
          <mxGeometry x="-670" y="337" width="166" height="90" as="geometry" />
        </mxCell>
        <mxCell id="ln1pvscLLcl-5rHWacLM-24" value="15" style="rounded=0;html=1;align=left;verticalAlign=top;fontStyle=1;fontFamily=Comic Sans MS;fontSize=19;labelBackgroundColor=none;whiteSpace=wrap;fillColor=#5DA2E8;strokeColor=#000000;strokeWidth=2;" vertex="1" parent="ln1pvscLLcl-5rHWacLM-1">
          <mxGeometry x="-670" y="434" width="166" height="90" as="geometry" />
        </mxCell>
        <mxCell id="ln1pvscLLcl-5rHWacLM-25" value="22" style="rounded=0;html=1;align=left;verticalAlign=top;fontStyle=1;fontFamily=Comic Sans MS;fontSize=19;labelBackgroundColor=none;whiteSpace=wrap;fillColor=#5DA2E8;strokeColor=#000000;strokeWidth=2;" vertex="1" parent="ln1pvscLLcl-5rHWacLM-1">
          <mxGeometry x="-670" y="536" width="166" height="90" as="geometry" />
        </mxCell>
        <mxCell id="ln1pvscLLcl-5rHWacLM-26" value="29" style="rounded=0;html=1;align=left;verticalAlign=top;fontStyle=1;fontFamily=Comic Sans MS;fontSize=19;labelBackgroundColor=none;whiteSpace=wrap;fillColor=#5DA2E8;strokeColor=#000000;strokeWidth=2;" vertex="1" parent="ln1pvscLLcl-5rHWacLM-1">
          <mxGeometry x="-670" y="636" width="166" height="90" as="geometry" />
        </mxCell>
        <mxCell id="ln1pvscLLcl-5rHWacLM-27" value="" style="rounded=0;html=1;align=left;verticalAlign=top;fontStyle=1;fontFamily=Comic Sans MS;fontSize=19;labelBackgroundColor=none;whiteSpace=wrap;fillColor=#5DA2E8;strokeColor=#000000;strokeWidth=2;" vertex="1" parent="ln1pvscLLcl-5rHWacLM-1">
          <mxGeometry x="-669" y="737" width="166" height="90" as="geometry" />
        </mxCell>
        <mxCell id="ln1pvscLLcl-5rHWacLM-28" value="2" style="rounded=0;html=1;align=left;verticalAlign=top;fontStyle=1;fontFamily=Comic Sans MS;fontSize=19;labelBackgroundColor=none;whiteSpace=wrap;fillColor=#5DA2E8;strokeColor=#000000;strokeWidth=2;" vertex="1" parent="ln1pvscLLcl-5rHWacLM-1">
          <mxGeometry x="-502" y="240" width="166" height="90" as="geometry" />
        </mxCell>
        <mxCell id="ln1pvscLLcl-5rHWacLM-29" value="9" style="rounded=0;html=1;align=left;verticalAlign=top;fontStyle=1;fontFamily=Comic Sans MS;fontSize=19;labelBackgroundColor=none;whiteSpace=wrap;fillColor=#5DA2E8;strokeColor=#000000;strokeWidth=2;" vertex="1" parent="ln1pvscLLcl-5rHWacLM-1">
          <mxGeometry x="-502" y="337" width="166" height="90" as="geometry" />
        </mxCell>
        <mxCell id="ln1pvscLLcl-5rHWacLM-30" value="16" style="rounded=0;html=1;align=left;verticalAlign=top;fontStyle=1;fontFamily=Comic Sans MS;fontSize=19;labelBackgroundColor=none;whiteSpace=wrap;fillColor=#5DA2E8;strokeColor=#000000;strokeWidth=2;" vertex="1" parent="ln1pvscLLcl-5rHWacLM-1">
          <mxGeometry x="-502" y="434" width="166" height="90" as="geometry" />
        </mxCell>
        <mxCell id="ln1pvscLLcl-5rHWacLM-31" value="23" style="rounded=0;html=1;align=left;verticalAlign=top;fontStyle=1;fontFamily=Comic Sans MS;fontSize=19;labelBackgroundColor=none;whiteSpace=wrap;fillColor=#5DA2E8;strokeColor=#000000;strokeWidth=2;" vertex="1" parent="ln1pvscLLcl-5rHWacLM-1">
          <mxGeometry x="-502" y="536" width="166" height="90" as="geometry" />
        </mxCell>
        <mxCell id="ln1pvscLLcl-5rHWacLM-32" value="30" style="rounded=0;html=1;align=left;verticalAlign=top;fontStyle=1;fontFamily=Comic Sans MS;fontSize=19;labelBackgroundColor=none;whiteSpace=wrap;fillColor=#5DA2E8;strokeColor=#000000;strokeWidth=2;" vertex="1" parent="ln1pvscLLcl-5rHWacLM-1">
          <mxGeometry x="-502" y="636" width="166" height="90" as="geometry" />
        </mxCell>
        <mxCell id="ln1pvscLLcl-5rHWacLM-33" value="" style="rounded=0;html=1;align=left;verticalAlign=top;fontStyle=1;fontFamily=Comic Sans MS;fontSize=19;labelBackgroundColor=none;whiteSpace=wrap;fillColor=#5DA2E8;strokeColor=#000000;strokeWidth=2;" vertex="1" parent="ln1pvscLLcl-5rHWacLM-1">
          <mxGeometry x="-501" y="737" width="166" height="90" as="geometry" />
        </mxCell>
        <mxCell id="ln1pvscLLcl-5rHWacLM-34" value="3" style="rounded=0;html=1;align=left;verticalAlign=top;fontStyle=1;fontFamily=Comic Sans MS;fontSize=19;labelBackgroundColor=none;whiteSpace=wrap;fillColor=#5DA2E8;strokeColor=#000000;strokeWidth=2;" vertex="1" parent="ln1pvscLLcl-5rHWacLM-1">
          <mxGeometry x="-334.5" y="240" width="166" height="90" as="geometry" />
        </mxCell>
        <mxCell id="ln1pvscLLcl-5rHWacLM-35" value="10" style="rounded=0;html=1;align=left;verticalAlign=top;fontStyle=1;fontFamily=Comic Sans MS;fontSize=19;labelBackgroundColor=none;whiteSpace=wrap;fillColor=#5DA2E8;strokeColor=#000000;strokeWidth=2;" vertex="1" parent="ln1pvscLLcl-5rHWacLM-1">
          <mxGeometry x="-334.5" y="337" width="166" height="90" as="geometry" />
        </mxCell>
        <mxCell id="ln1pvscLLcl-5rHWacLM-36" value="17" style="rounded=0;html=1;align=left;verticalAlign=top;fontStyle=1;fontFamily=Comic Sans MS;fontSize=19;labelBackgroundColor=none;whiteSpace=wrap;fillColor=#5DA2E8;strokeColor=#000000;strokeWidth=2;" vertex="1" parent="ln1pvscLLcl-5rHWacLM-1">
          <mxGeometry x="-334.5" y="434" width="166" height="90" as="geometry" />
        </mxCell>
        <mxCell id="ln1pvscLLcl-5rHWacLM-37" value="24" style="rounded=0;html=1;align=left;verticalAlign=top;fontStyle=1;fontFamily=Comic Sans MS;fontSize=19;labelBackgroundColor=none;whiteSpace=wrap;fillColor=#5DA2E8;strokeColor=#000000;strokeWidth=2;" vertex="1" parent="ln1pvscLLcl-5rHWacLM-1">
          <mxGeometry x="-334.5" y="536" width="166" height="90" as="geometry" />
        </mxCell>
        <mxCell id="ln1pvscLLcl-5rHWacLM-38" value="" style="rounded=0;html=1;align=left;verticalAlign=top;fontStyle=1;fontFamily=Comic Sans MS;fontSize=19;labelBackgroundColor=none;whiteSpace=wrap;fillColor=#5DA2E8;strokeColor=#000000;strokeWidth=2;" vertex="1" parent="ln1pvscLLcl-5rHWacLM-1">
          <mxGeometry x="-334.5" y="636" width="166" height="90" as="geometry" />
        </mxCell>
        <mxCell id="ln1pvscLLcl-5rHWacLM-39" value="" style="rounded=0;html=1;align=left;verticalAlign=top;fontStyle=1;fontFamily=Comic Sans MS;fontSize=19;labelBackgroundColor=none;whiteSpace=wrap;fillColor=#5DA2E8;strokeColor=#000000;strokeWidth=2;" vertex="1" parent="ln1pvscLLcl-5rHWacLM-1">
          <mxGeometry x="-333.5" y="737" width="166" height="90" as="geometry" />
        </mxCell>
        <mxCell id="ln1pvscLLcl-5rHWacLM-40" value="" style="rounded=0;html=1;align=left;verticalAlign=top;fontStyle=1;fontFamily=Comic Sans MS;fontSize=19;labelBackgroundColor=none;whiteSpace=wrap;fillColor=#5DA2E8;strokeColor=#000000;strokeWidth=2;" vertex="1" parent="ln1pvscLLcl-5rHWacLM-1">
          <mxGeometry x="-1003" y="240" width="166" height="90" as="geometry" />
        </mxCell>
        <mxCell id="ln1pvscLLcl-5rHWacLM-41" value="6" style="rounded=0;html=1;align=left;verticalAlign=top;fontStyle=1;fontFamily=Comic Sans MS;fontSize=19;labelBackgroundColor=none;whiteSpace=wrap;fillColor=#5DA2E8;strokeColor=#000000;strokeWidth=2;" vertex="1" parent="ln1pvscLLcl-5rHWacLM-1">
          <mxGeometry x="-1003" y="337" width="166" height="90" as="geometry" />
        </mxCell>
        <mxCell id="ln1pvscLLcl-5rHWacLM-42" value="13" style="rounded=0;html=1;align=left;verticalAlign=top;fontStyle=1;fontFamily=Comic Sans MS;fontSize=19;labelBackgroundColor=none;whiteSpace=wrap;fillColor=#5DA2E8;strokeColor=#000000;strokeWidth=2;" vertex="1" parent="ln1pvscLLcl-5rHWacLM-1">
          <mxGeometry x="-1003" y="434" width="166" height="90" as="geometry" />
        </mxCell>
        <mxCell id="ln1pvscLLcl-5rHWacLM-43" value="20" style="rounded=0;html=1;align=left;verticalAlign=top;fontStyle=1;fontFamily=Comic Sans MS;fontSize=19;labelBackgroundColor=none;whiteSpace=wrap;fillColor=#5DA2E8;strokeColor=#000000;strokeWidth=2;" vertex="1" parent="ln1pvscLLcl-5rHWacLM-1">
          <mxGeometry x="-1003" y="536" width="166" height="90" as="geometry" />
        </mxCell>
        <mxCell id="ln1pvscLLcl-5rHWacLM-44" value="27" style="rounded=0;html=1;align=left;verticalAlign=top;fontStyle=1;fontFamily=Comic Sans MS;fontSize=19;labelBackgroundColor=none;whiteSpace=wrap;fillColor=#5DA2E8;strokeColor=#000000;strokeWidth=2;" vertex="1" parent="ln1pvscLLcl-5rHWacLM-1">
          <mxGeometry x="-1003" y="636" width="166" height="90" as="geometry" />
        </mxCell>
        <mxCell id="ln1pvscLLcl-5rHWacLM-45" value="" style="rounded=0;html=1;align=left;verticalAlign=top;fontStyle=1;fontFamily=Comic Sans MS;fontSize=19;labelBackgroundColor=none;whiteSpace=wrap;fillColor=#5DA2E8;strokeColor=#000000;strokeWidth=2;" vertex="1" parent="ln1pvscLLcl-5rHWacLM-1">
          <mxGeometry x="-1002" y="737" width="166" height="90" as="geometry" />
        </mxCell>
        <mxCell id="ln1pvscLLcl-5rHWacLM-46" value="" style="rounded=0;html=1;align=left;verticalAlign=top;fontStyle=1;fontFamily=Comic Sans MS;fontSize=19;labelBackgroundColor=none;whiteSpace=wrap;fillColor=#5DA2E8;strokeColor=#000000;strokeWidth=2;" vertex="1" parent="ln1pvscLLcl-5rHWacLM-1">
          <mxGeometry x="-1169" y="240" width="166" height="90" as="geometry" />
        </mxCell>
        <mxCell id="ln1pvscLLcl-5rHWacLM-47" value="5" style="rounded=0;html=1;align=left;verticalAlign=top;fontStyle=1;fontFamily=Comic Sans MS;fontSize=19;labelBackgroundColor=none;whiteSpace=wrap;fillColor=#5DA2E8;strokeColor=#000000;strokeWidth=2;" vertex="1" parent="ln1pvscLLcl-5rHWacLM-1">
          <mxGeometry x="-1169" y="337" width="166" height="90" as="geometry" />
        </mxCell>
        <mxCell id="ln1pvscLLcl-5rHWacLM-48" value="12" style="rounded=0;html=1;align=left;verticalAlign=top;fontStyle=1;fontFamily=Comic Sans MS;fontSize=19;labelBackgroundColor=none;whiteSpace=wrap;fillColor=#5DA2E8;strokeColor=#000000;strokeWidth=2;" vertex="1" parent="ln1pvscLLcl-5rHWacLM-1">
          <mxGeometry x="-1169" y="434" width="166" height="90" as="geometry" />
        </mxCell>
        <mxCell id="ln1pvscLLcl-5rHWacLM-49" value="19" style="rounded=0;html=1;align=left;verticalAlign=top;fontStyle=1;fontFamily=Comic Sans MS;fontSize=19;labelBackgroundColor=none;whiteSpace=wrap;fillColor=#5DA2E8;strokeColor=#000000;strokeWidth=2;" vertex="1" parent="ln1pvscLLcl-5rHWacLM-1">
          <mxGeometry x="-1169" y="536" width="166" height="90" as="geometry" />
        </mxCell>
        <mxCell id="ln1pvscLLcl-5rHWacLM-50" value="26" style="rounded=0;html=1;align=left;verticalAlign=top;fontStyle=1;fontFamily=Comic Sans MS;fontSize=19;labelBackgroundColor=none;whiteSpace=wrap;fillColor=#5DA2E8;strokeColor=#000000;strokeWidth=2;" vertex="1" parent="ln1pvscLLcl-5rHWacLM-1">
          <mxGeometry x="-1169" y="636" width="166" height="90" as="geometry" />
        </mxCell>
        <mxCell id="ln1pvscLLcl-5rHWacLM-51" value="" style="rounded=0;html=1;align=left;verticalAlign=top;fontStyle=1;fontFamily=Comic Sans MS;fontSize=19;labelBackgroundColor=none;whiteSpace=wrap;fillColor=#5DA2E8;strokeColor=#000000;strokeWidth=2;" vertex="1" parent="ln1pvscLLcl-5rHWacLM-1">
          <mxGeometry x="-1168" y="737" width="166" height="90" as="geometry" />
        </mxCell>
      </root>
    </mxGraphModel>
  </diagram>
</mxfile>
